<?xml version="1.0" encoding="UTF-8" standalone="no"?>
<svg
   xmlns:dc="http://purl.org/dc/elements/1.1/"
   xmlns:cc="http://creativecommons.org/ns#"
   xmlns:rdf="http://www.w3.org/1999/02/22-rdf-syntax-ns#"
   xmlns:svg="http://www.w3.org/2000/svg"
   xmlns="http://www.w3.org/2000/svg"
   viewBox="0 0 2666.6667 2666.6667"
   height="2666.6667"
   width="2666.6667"
   xml:space="preserve"
   id="svg2"
   version="1.1"><metadata
     id="metadata8"><rdf:RDF><cc:Work
         rdf:about=""><dc:format>image/svg+xml</dc:format><dc:type
           rdf:resource="http://purl.org/dc/dcmitype/StillImage" /></cc:Work></rdf:RDF></metadata><defs
     id="defs6"><clipPath
       id="clipPath40"
       clipPathUnits="userSpaceOnUse"><path
         id="path38"
         d="M 0,2000 H 2000 V 0 H 0 Z" /></clipPath></defs><g
     transform="matrix(1.3333333,0,0,-1.3333333,0,2666.6667)"
     id="g10"><path
       id="path12"
       style="fill:#333333;fill-opacity:1;fill-rule:nonzero;stroke:none"
       d="M 0,0 H 2000 V 2000 H 0 Z" /><g
       transform="translate(803.2085,891.7832)"
       id="g14"><path
         id="path16"
         style="fill:#dfc4ad;fill-opacity:1;fill-rule:nonzero;stroke:none"
         d="m 0,0 14.85,138.171 h 85.631 l 26.946,-82.36 z M 164.811,70.602 129.75,178.509 h -0.025 L 100.593,267.552 66.224,242.877 87.283,178.509 H -21.385 l -26.156,-243.367 224.692,98.41 -12.143,37.114 z" /></g><g
       transform="translate(1047.6631,947.4824)"
       id="g18"><path
         id="path20"
         style="fill:#dfc4ad;fill-opacity:1;fill-rule:nonzero;stroke:none"
         d="m 0,0 26.946,82.36 h 85.631 L 127.428,-55.811 Z M 98.603,122.698 H 40.144 -2.298 -48.201 -82.36 v 0.111 h -11.02 l 13.106,-40.337 h 11.447 l 20.455,-0.112 h 32.877 l -34.229,-104.619 224.693,-98.41 -26.157,243.367 z" /></g><g
       transform="translate(1154.6533,1274.498)"
       id="g22"><path
         id="path24"
         style="fill:#dfc4ad;fill-opacity:1;fill-rule:nonzero;stroke:none"
         d="M 0,0 134.593,-29.106 42.984,-130.019 -26.128,-79.86 Z m -84.793,-129.45 -17.86,-54.588 h 42.442 l 20.905,63.9 87.857,-63.763 162.898,179.445 -238.475,51.57 -13.123,-40.11 0.006,-0.002 z" /></g><g
       transform="translate(823.645,1274.6089)"
       id="g26"><path
         id="path28"
         style="fill:#dfc4ad;fill-opacity:1;fill-rule:nonzero;stroke:none"
         d="m 0,0 26.007,-79.491 -69.035,-50.479 -91.564,100.865 z m 39.2,-119.815 v 0 l 34.249,25.043 73.771,53.943 -34.263,24.917 L 60.256,-54.448 27.027,47.115 -211.449,-4.455 -48.507,-183.948 Z" /></g><g
       transform="translate(919.0835,1346.6426)"
       id="g30"><path
         id="path32"
         style="fill:#dfc4ad;fill-opacity:1;fill-rule:nonzero;stroke:none"
         d="M 0,0 69.66,118.728 137.848,0.042 69.153,-50.189 Z m 34.712,-75.374 34.263,-24.917 0.267,0.196 75.483,-54.782 13.18,40.276 -54.453,39.52 87.372,63.889 L 70.026,199.063 -53.311,-11.151 34.944,-75.203 Z" /></g><g
       id="g34"><g
         clip-path="url(#clipPath40)"
         id="g36"><g
           transform="translate(679.9917,623.0732)"
           id="g42"><path
             id="path44"
             style="fill:#ffffff;fill-opacity:1;fill-rule:nonzero;stroke:none"
             d="m 0,0 c -3.354,-0.14 -7.215,-0.28 -11.535,-0.419 -4.462,0.129 -8.27,0.26 -11.381,0.389 L -24.327,0.028 -11.39,32.438 1.405,0.059 Z m 46.525,-66.336 c 3.05,-0.339 4.962,-0.497 6.021,-0.497 h 6.048 l -2.382,5.559 C 38.142,-19.108 20.092,25.382 2.563,70.959 v 0 l -1.406,3.656 -3.681,-1.339 c -0.84,-0.306 -1.897,-0.478 -3.14,-0.511 l -0.097,-0.002 -0.095,0.015 c -2.597,0.437 -3.244,0.576 -3.402,0.617 l -3.329,0.842 -19.473,-46.45 -40.788,-95.579 7.009,0.998 c 3.239,0.461 5.794,0.702 7.592,0.716 4.507,-0.303 6.536,-0.55 7.457,-0.703 l 3.706,-0.615 0.835,3.666 c 2.221,9.744 5.041,19.263 8.38,28.295 l 6.472,18.087 0.672,0.029 c 12.795,0.545 25.789,0.543 38.621,-0.004 l 0.655,-0.029 0.235,-0.611 c 4.684,-12.159 9.916,-27.653 15.552,-46.051 l 0.949,-3.096 3.225,0.294 c 8.909,0.807 11.3,0.927 11.932,0.927 0.922,0 2.725,-0.077 6.081,-0.447" /></g><g
           transform="translate(868.5879,687.4121)"
           id="g46"><path
             id="path48"
             style="fill:#ffffff;fill-opacity:1;fill-rule:nonzero;stroke:none"
             d="m 0,0 c -16.201,7.125 -31.947,10.738 -46.802,10.738 -22.256,0 -40.417,-6.472 -53.981,-19.237 -13.632,-12.83 -20.544,-30.54 -20.544,-52.639 0,-20.913 6.462,-38.079 19.205,-51.02 12.759,-12.961 29.717,-19.533 50.403,-19.533 17.241,0 33.533,4.107 48.425,12.209 l 2.023,1.1 0.059,2.303 c 0.117,4.629 0.785,9.716 1.986,15.119 l 0.761,3.417 -7.672,2.791 -1.788,-1.673 c -12.915,-12.085 -26.249,-18.213 -39.634,-18.213 -6.845,0 -13.161,1.581 -18.771,4.7 -5.677,3.152 -10.349,7.328 -13.887,12.409 -3.65,5.236 -6.49,11.129 -8.44,17.511 -1.954,6.399 -2.946,13.069 -2.946,19.825 0,9.931 1.566,19.059 4.654,27.13 2.992,7.827 7.989,14.425 14.849,19.614 6.756,5.11 15.077,7.701 24.731,7.701 15.559,0 27.008,-6.25 35,-19.106 l 1.171,-1.885 h 8.353 l 0.298,3.666 c 0.464,5.719 2.017,11.731 4.614,17.868 L 3.6,-1.583 Z" /></g><g
           transform="translate(955.939,676.4551)"
           id="g50"><path
             id="path52"
             style="fill:#ffffff;fill-opacity:1;fill-rule:nonzero;stroke:none"
             d="m 0,0 h 6.984 c 7.038,0 16.471,-1.06 28.036,-3.15 l 6.184,-1.118 -1.622,6.072 c -0.412,1.545 -0.621,3.489 -0.621,5.779 0,2.289 0.209,4.233 0.621,5.777 l 1.39,5.204 -5.382,-0.187 C 10.469,17.5 -5.962,17.056 -13.249,17.056 c -13.527,0 -29.88,0.444 -48.604,1.319 l -4.979,0.232 0.866,-4.909 c 0.336,-1.907 0.507,-3.901 0.507,-5.927 0,-2.122 -0.165,-4.022 -0.49,-5.647 l -1.075,-5.373 5.444,0.629 c 12.835,1.484 24.298,2.348 34.072,2.565 l 0.985,0.022 0.037,-0.985 c 0.239,-6.383 0.36,-12.842 0.36,-19.198 0,-25.968 -0.063,-45.838 -0.187,-59.058 -0.373,-13.205 -1.005,-25.287 -1.879,-35.924 l -0.408,-4.972 4.938,0.695 c 0.866,0.122 2.045,0.28 3.532,0.466 1.486,0.186 2.813,0.339 3.982,0.462 1.071,0.111 2.109,0.168 3.088,0.168 0.835,0 2.558,-0.093 6.018,-0.534 4.693,-0.6 4.814,-0.6 5.139,-0.6 h 4.487 l -0.526,4.456 c -0.989,8.385 -1.68,18.617 -2.054,30.411 -0.376,21.943 -0.566,44.443 -0.566,66.889 0,3.799 0.174,9.453 0.518,16.804 z" /></g><g
           transform="translate(1142.3398,557.1406)"
           id="g54"><path
             id="path56"
             style="fill:#ffffff;fill-opacity:1;fill-rule:nonzero;stroke:none"
             d="M 0,0 C 1.566,-0.116 2.714,-0.231 3.318,-0.332 L 8.434,-1.192 7.952,3.971 C 7.081,13.338 6.449,24.132 6.077,36.056 l -0.002,0.033 c -0.75,18.893 -1.131,42.826 -1.131,71.14 0,6.331 0.127,16.04 0.377,28.856 l 0.08,4.066 H -7.259 L -70.426,69.473 -92.634,45.823 v 42.308 c 0,15.519 0.82,30.704 2.434,45.131 l 0.534,4.78 -12.065,-0.905 -0.075,0.006 -12.141,0.886 0.5,-4.743 c 0.991,-9.404 1.684,-18.221 2.06,-26.206 0.751,-35.089 1.132,-62.069 1.132,-80.219 0,-5.904 -0.127,-14.335 -0.377,-25.057 l -0.097,-4.083 h 11.884 l 1.199,1.525 c 8.21,10.45 20.348,24.293 36.075,41.144 l 48.516,51.33 V 49.932 c 0,-13.653 -0.946,-29.092 -2.812,-45.89 l -0.529,-4.738 4.758,0.318 C -5.267,0.046 -3.565,0.153 -3.16,0.177 -2.538,0.17 -1.499,0.11 0,0" /></g><g
           transform="translate(1286.9561,585.8906)"
           id="g58"><path
             id="path60"
             style="fill:#ffffff;fill-opacity:1;fill-rule:nonzero;stroke:none"
             d="m 0,0 c -7.469,-10.167 -18.604,-15.109 -34.039,-15.109 -15.32,0 -26.458,4.977 -34.051,15.217 -7.76,10.465 -11.694,23.981 -11.694,40.173 0,7.518 1.022,15.138 3.039,22.65 l 0.017,0.056 c 7.263,21.783 20.828,31.928 42.689,31.928 10.068,0 18.705,-2.519 25.672,-7.485 C -1.356,82.429 3.739,75.94 6.777,68.146 9.923,60.07 11.518,50.695 11.518,40.281 11.518,23.958 7.643,10.405 0,0 m 19.988,92.209 c -13.998,12.735 -32.175,19.192 -54.027,19.192 -21.864,0 -39.982,-6.462 -53.851,-19.205 -13.968,-12.831 -21.051,-30.425 -21.051,-52.294 0,-15.209 3.934,-29.041 11.694,-41.111 7.83,-12.181 18.952,-20.854 33.058,-25.78 8.378,-3.186 18.578,-4.796 30.339,-4.796 11.637,0 21.754,1.603 30.071,4.765 14.162,4.951 25.33,13.626 33.221,25.797 7.829,12.075 11.799,25.91 11.799,41.125 0,21.873 -7.15,39.472 -21.253,52.307" /></g><g
           transform="translate(1455.1387,557.5508)"
           id="g62"><path
             id="path64"
             style="fill:#ffffff;fill-opacity:1;fill-rule:nonzero;stroke:none"
             d="m 0,0 c 2.957,0.435 4.558,0.525 5.379,0.525 0.811,0 2.386,-0.09 5.27,-0.522 2.779,-0.417 4.589,-0.611 5.699,-0.611 h 4.282 l -0.304,4.272 c -1.374,19.202 -2.07,32.412 -2.071,39.266 l -0.378,23.353 0.378,29.014 c 0,11.294 0.693,23.949 2.06,37.599 l 0.441,4.387 h -4.408 c -1.077,0 -2.806,-0.155 -5.604,-0.504 -2.907,-0.365 -4.522,-0.441 -5.365,-0.441 -0.849,0 -2.488,0.077 -5.48,0.444 -2.864,0.347 -4.616,0.501 -5.677,0.501 h -4.248 l 0.267,-4.239 c 0.695,-10.993 1.071,-27.325 1.121,-48.543 l 0.002,-0.986 -0.986,-0.016 c -20.274,-0.321 -30.744,-0.486 -31.121,-0.489 -0.289,10e-4 -4.728,0.066 -31.344,0.489 l -0.988,0.016 0.004,0.989 c 0.078,17.751 0.581,34.082 1.494,48.54 l 0.266,4.239 h -4.247 c -1.067,0 -2.82,-0.155 -5.685,-0.503 -2.991,-0.365 -4.627,-0.442 -5.472,-0.442 -0.763,0 -2.299,0.077 -5.289,0.444 -2.826,0.342 -4.691,0.501 -5.868,0.501 h -4.352 l 0.378,-4.336 c 1.622,-18.61 2.445,-40.38 2.445,-64.705 0,-22.082 -0.824,-43.8 -2.448,-64.552 l -0.335,-4.298 h 4.312 c 1.232,0 3.129,0.193 5.968,0.608 2.34,0.344 4.134,0.525 5.189,0.525 1.052,0 2.847,-0.181 5.191,-0.525 2.834,-0.415 4.73,-0.608 5.966,-0.608 h 4.202 l -0.219,4.195 c -1,19.207 -1.507,33.962 -1.507,43.853 v 16.876 l 20.201,0.316 h 0.035 c 18.26,0 32.799,-0.094 43.232,-0.278 l 0.982,-0.018 V 47.489 L -8.821,27.953 c 0,-7.159 -0.315,-15.337 -0.936,-24.298 l -0.296,-4.263 h 4.275 c 1.103,0 2.939,0.193 5.778,0.608" /></g><g
           transform="translate(580.5908,504.1748)"
           id="g66"><path
             id="path68"
             style="fill:#ffffff;fill-opacity:1;fill-rule:nonzero;stroke:none"
             d="m 0,0 h 16.443 v -42.514 h 6.326 V 0 H 39.212 V 5.724 H 0 Z" /></g><g
           transform="translate(649.1709,477.9717)"
           id="g70"><path
             id="path72"
             style="fill:#ffffff;fill-opacity:1;fill-rule:nonzero;stroke:none"
             d="m 0,0 v -4.884 c -1.775,-4.239 -5.477,-6.571 -10.44,-6.571 -5.115,0 -8.167,2.203 -8.167,5.893 0,1.375 0,5.562 8.301,5.562 z m -8.769,20.562 c -5.707,0 -11.091,-1.792 -14.772,-4.917 l -0.469,-0.399 2.905,-4.811 0.649,0.574 c 2.806,2.481 7,3.963 11.219,3.963 C -3.108,14.972 0,12.09 0,6.404 V 4.987 h -10.44 c -12.435,0 -14.291,-6.693 -14.291,-10.682 0,-6.652 5.32,-10.95 13.556,-10.95 4.877,0 8.83,1.526 11.375,4.343 v -4.009 H 6.19 V 6.204 c 0,9.259 -5.312,14.358 -14.959,14.358" /></g><g
           transform="translate(697.0278,482.6914)"
           id="g74"><path
             id="path76"
             style="fill:#ffffff;fill-opacity:1;fill-rule:nonzero;stroke:none"
             d="m 0,0 h -20.679 v 15.576 h -6.192 V -21.03 h 6.192 V -5.522 H 0 V -21.03 H 6.191 V 15.576 H 0 Z" /></g><g
           transform="translate(751.2759,498.2676)"
           id="g78"><path
             id="path80"
             style="fill:#ffffff;fill-opacity:1;fill-rule:nonzero;stroke:none"
             d="M 0,0 H -6.191 V -31.016 H -26.202 V 0 h -6.191 v -36.606 h 32.151 v -8.822 h 5.924 v 14.412 H 0 Z" /></g><g
           transform="translate(794.3926,482.7588)"
           id="g82"><path
             id="path84"
             style="fill:#ffffff;fill-opacity:1;fill-rule:nonzero;stroke:none"
             d="m 0,0 h -23.314 c 0.869,6.165 5.453,10.252 11.624,10.252 C -5.482,10.252 -0.871,6.165 0,0 m -11.69,15.774 c -10.372,0 -17.901,-7.808 -17.901,-18.568 0,-10.974 7.883,-18.638 19.171,-18.638 5.855,0 10.87,2.133 14.123,6.008 l 0.397,0.473 -3.625,4.167 -0.545,-0.627 c -2.483,-2.856 -6.016,-4.364 -10.216,-4.364 -7.064,0 -12.212,4.301 -13.039,10.786 H 6.011 v 0.723 c 0,0.27 0.019,0.539 0.035,0.791 0.017,0.248 0.032,0.48 0.032,0.681 0,10.934 -7.307,18.568 -17.768,18.568" /></g><g
           transform="translate(819.1836,482.626)"
           id="g86"><path
             id="path88"
             style="fill:#ffffff;fill-opacity:1;fill-rule:nonzero;stroke:none"
             d="m 0,0 v 10.451 h 9.839 c 5.109,0 7.699,-1.735 7.699,-5.158 C 17.538,0.918 13.351,0 9.839,0 Z m 18.808,-10.416 c 0,-2.301 -0.868,-5.359 -8.367,-5.359 H 0 v 10.786 h 10.908 c 6.961,0 7.9,-2.743 7.9,-5.427 m 0.294,8.492 c 3.001,1.67 4.627,4.39 4.627,7.819 0,6.103 -5.067,9.747 -13.556,9.747 h -16.23 v -36.607 h 16.698 c 11.812,0 14.292,5.592 14.292,10.282 0,4.342 -1.96,7.281 -5.831,8.759" /></g><g
           transform="translate(878.9639,477.9717)"
           id="g90"><path
             id="path92"
             style="fill:#ffffff;fill-opacity:1;fill-rule:nonzero;stroke:none"
             d="m 0,0 v -4.884 c -1.775,-4.239 -5.477,-6.571 -10.44,-6.571 -5.115,0 -8.168,2.203 -8.168,5.893 0,1.375 0,5.562 8.302,5.562 z m -8.769,20.562 c -5.708,0 -11.091,-1.792 -14.772,-4.917 l -0.469,-0.399 2.905,-4.811 0.649,0.574 c 2.806,2.481 7,3.963 11.219,3.963 C -3.108,14.972 0,12.09 0,6.404 V 4.987 h -10.44 c -12.435,0 -14.292,-6.693 -14.292,-10.682 0,-6.652 5.321,-10.95 13.557,-10.95 4.877,0 8.83,1.526 11.375,4.343 v -4.009 H 6.19 V 6.204 c 0,9.259 -5.312,14.358 -14.959,14.358" /></g><g
           transform="translate(902.3574,485.0137)"
           id="g94"><path
             id="path96"
             style="fill:#ffffff;fill-opacity:1;fill-rule:nonzero;stroke:none"
             d="m 0,0 c -0.514,-10.216 -1.29,-18.03 -6.095,-18.03 -0.384,0 -0.947,0.125 -1.516,0.251 l -0.808,0.179 -0.452,-5.508 0.587,-0.154 c 1.493,-0.39 2.567,-0.558 3.592,-0.558 8.553,0 9.86,12.086 10.414,23.41 l 0.43,8.007 H 21.59 v -30.95 h 6.191 V 13.254 H 0.635 Z" /></g><g
           transform="translate(951.9937,480.9687)"
           id="g98"><path
             id="path100"
             style="fill:#ffffff;fill-opacity:1;fill-rule:nonzero;stroke:none"
             d="m 0,0 8.427,-0.124 c 6.261,-0.064 9.177,-2.276 9.177,-6.963 0,-2.15 -0.607,-3.842 -1.804,-5.026 -1.514,-1.498 -3.994,-2.241 -7.355,-2.205 L 0,-14.195 Z M 9.647,4.864 0,4.988 v 12.311 h -6.192 v -36.603 l 14.882,-0.07 c 0.151,-0.002 0.3,-0.002 0.448,-0.002 5.1,0 8.973,1.269 11.515,3.774 2.13,2.099 3.209,4.964 3.209,8.515 0,7.638 -5.049,11.882 -14.215,11.951" /></g><g
           transform="translate(1013.9121,482.6914)"
           id="g102"><path
             id="path104"
             style="fill:#ffffff;fill-opacity:1;fill-rule:nonzero;stroke:none"
             d="m 0,0 h -20.679 v 15.576 h -6.192 V -21.03 h 6.192 V -5.522 H 0 V -21.03 H 6.191 V 15.576 H 0 Z" /></g><g
           transform="translate(1057.3574,477.9717)"
           id="g106"><path
             id="path108"
             style="fill:#ffffff;fill-opacity:1;fill-rule:nonzero;stroke:none"
             d="m 0,0 v -4.884 c -1.774,-4.239 -5.477,-6.571 -10.44,-6.571 -5.114,0 -8.167,2.203 -8.167,5.893 0,1.375 0,5.562 8.301,5.562 z m -8.769,20.562 c -5.707,0 -11.091,-1.792 -14.772,-4.917 l -0.469,-0.399 2.906,-4.811 0.649,0.574 c 2.806,2.481 7,3.963 11.218,3.963 C -3.107,14.972 0,12.09 0,6.404 V 4.987 h -10.44 c -12.435,0 -14.291,-6.693 -14.291,-10.682 0,-6.652 5.321,-10.95 13.556,-10.95 4.877,0 8.83,1.526 11.375,4.343 v -4.009 H 6.191 V 6.204 c 0,9.259 -5.313,14.358 -14.96,14.358" /></g><g
           transform="translate(1101.0039,492.6104)"
           id="g110"><path
             id="path112"
             style="fill:#ffffff;fill-opacity:1;fill-rule:nonzero;stroke:none"
             d="m 0,0 v -14.329 h -9.906 c -6.302,0 -9.237,2.255 -9.237,7.098 0,4.933 3.041,7.231 9.572,7.231 z m -25.4,-7.099 c 0,-5.512 2.845,-9.465 8.041,-11.227 l -8.988,-12.623 h 6.925 l 8.154,11.631 H 0 V -30.949 H 5.79 V 5.657 H -9.705 C -19.68,5.657 -25.4,1.008 -25.4,-7.099" /></g><g
           transform="translate(1166.0918,504.4414)"
           id="g114"><path
             id="path116"
             style="fill:#ffffff;fill-opacity:1;fill-rule:nonzero;stroke:none"
             d="m 0,0 c 5.437,0 9.794,-1.744 13.321,-5.332 l 0.512,-0.52 4.144,4.145 -0.464,0.51 C 13.366,3.352 7.1,5.856 -0.134,5.856 c -14.396,0 -25.253,-10.541 -25.253,-24.519 0,-13.978 10.828,-24.519 25.188,-24.519 7.234,0 13.525,2.53 17.712,7.122 l 0.464,0.511 -4.149,4.15 -0.512,-0.53 C 9.812,-35.559 5.455,-37.323 0,-37.323 c -10.867,0 -19.062,8.022 -19.062,18.66 C -19.062,-8.022 -10.867,0 0,0" /></g><g
           transform="translate(1187.4238,492.6104)"
           id="g118"><path
             id="path120"
             style="fill:#ffffff;fill-opacity:1;fill-rule:nonzero;stroke:none"
             d="m 0,0 h 13.302 v -30.949 h 6.191 V 0 H 32.795 V 5.657 H 0 Z" /></g><g
           transform="translate(1242.0869,469.4502)"
           id="g122"><path
             id="path124"
             style="fill:#ffffff;fill-opacity:1;fill-rule:nonzero;stroke:none"
             d="m 0,0 -12.765,28.817 h -6.531 l 16.03,-35.815 -1.402,-3.109 c -2.059,-4.533 -4.139,-5.46 -6.628,-5.46 -2.285,0 -4.272,0.828 -5.906,2.462 l -0.644,0.643 -2.99,-4.804 0.406,-0.405 c 2.174,-2.173 5.48,-3.42 9.068,-3.42 5.733,0 9.546,2.94 12.356,9.519 l 18.034,40.389 h -6.262 z" /></g><g
           transform="translate(1292.833,492.6104)"
           id="g126"><path
             id="path128"
             style="fill:#ffffff;fill-opacity:1;fill-rule:nonzero;stroke:none"
             d="m 0,0 v -25.358 h -19.495 c 2.778,3.716 3.337,11.272 3.627,18.223 L -15.502,0 Z m 6.19,5.657 h -27.352 l -0.494,-12.453 c -0.436,-8.828 -1.285,-18.271 -5.829,-18.562 h -2.729 v -14.08 h 5.925 v 8.489 H 5.748 v -8.489 h 5.924 v 14.08 H 6.19 Z" /></g><g
           transform="translate(1322.082,471.5889)"
           id="g130"><path
             id="path132"
             style="fill:#ffffff;fill-opacity:1;fill-rule:nonzero;stroke:none"
             d="M 0,0 V 26.679 H -6.192 V -9.928 h 5.338 L 21.48,16.747 V -9.928 h 6.192 v 36.607 h -5.271 z" /></g><g
           transform="translate(1388.1445,492.6104)"
           id="g134"><path
             id="path136"
             style="fill:#ffffff;fill-opacity:1;fill-rule:nonzero;stroke:none"
             d="m 0,0 v -14.329 h -9.906 c -6.301,0 -9.236,2.255 -9.236,7.098 0,4.933 3.041,7.231 9.572,7.231 z m -9.705,5.657 c -9.975,0 -15.695,-4.649 -15.695,-12.756 0,-5.512 2.845,-9.465 8.041,-11.227 l -8.988,-12.623 h 6.925 l 8.155,11.631 H 0 V -30.949 H 5.79 V 5.657 Z" /></g><g
           transform="translate(756.2798,1325.9067)"
           id="g138"><path
             id="path140"
             style="fill:#ffffff;fill-opacity:1;fill-rule:nonzero;stroke:none"
             d="m 0,0 23.827,5.406 20.031,61.542 h 71.526 L 127.48,87.932 H 28.621 Z" /></g><g
           transform="translate(979.5942,840.4258)"
           id="g142"><path
             id="path144"
             style="fill:#ffffff;fill-opacity:1;fill-rule:nonzero;stroke:none"
             d="M 0,0 -49.184,35.699 -71.576,26.023 0,-25.928 79.981,32.123 57.631,41.829 Z" /></g><g
           transform="translate(709.4971,1121.5005)"
           id="g146"><path
             id="path148"
             style="fill:#ffffff;fill-opacity:1;fill-rule:nonzero;stroke:none"
             d="m 0,0 -16.186,18.069 -29.005,-89.113 84.38,-61.245 2.953,23.785 -62.657,45.477 z" /></g><g
           transform="translate(1268.0557,1125.7559)"
           id="g150"><path
             id="path152"
             style="fill:#ffffff;fill-opacity:1;fill-rule:nonzero;stroke:none"
             d="m 0,0 -16.024,-18.562 18.174,-55.84 -43.739,-31.746 2.805,-23.892 65.611,47.621 z" /></g><g
           transform="translate(1092.0957,1413.8384)"
           id="g154"><path
             id="path156"
             style="fill:#ffffff;fill-opacity:1;fill-rule:nonzero;stroke:none"
             d="m 0,0 12.115,-20.983 h 54.84 L 86.144,-79.937 110.045,-85.57 82.192,0 Z" /></g><g
           transform="translate(530.1636,622.499)"
           id="g158"><path
             id="path160"
             style="fill:#ffffff;fill-opacity:1;fill-rule:nonzero;stroke:none"
             d="m 0,0 c 1.331,0.042 2.313,0.062 2.985,0.062 5.426,0 10.237,-0.333 14.301,-0.989 3.912,-0.634 7.794,-1.832 11.541,-3.559 3.34,-1.542 5.839,-3.868 7.64,-7.109 1.864,-3.357 2.809,-7.636 2.809,-12.719 0,-8.751 -2.809,-14.733 -8.841,-18.826 -6.353,-4.311 -14.38,-6.498 -23.857,-6.498 -2.033,0 -4.067,0.064 -6.045,0.188 l -0.862,0.054 -0.071,0.861 c -0.287,3.425 -0.477,6.063 -0.567,7.842 l -0.002,40.664 z m 2.216,-65.174 c 5.047,-0.254 8.614,-0.383 10.603,-0.383 8.816,0 17.234,1.239 25.02,3.681 5.911,1.854 11.329,4.793 16.104,8.736 l 0.11,0.085 c 1.73,1.449 3.326,2.965 4.811,4.57 0.833,0.9 1.635,1.865 2.383,2.867 4.817,6.788 7.099,15.311 6.767,25.314 -0.019,0.401 -0.046,0.811 -0.08,1.212 l -0.032,0.425 c -0.054,0.547 -0.125,1.08 -0.202,1.605 l -0.059,0.386 c -0.034,0.204 -0.069,0.388 -0.104,0.572 l -0.048,0.247 C 63.725,2.415 40.917,10.67 39.948,11.012 24.124,16.408 6.404,16.063 -0.479,15.669 l -1.057,-0.062 v 21.727 c 0,5.182 0.269,10.671 0.8,16.316 l 0.085,0.907 h 35.475 c 1.853,0 3.943,-0.079 6.211,-0.234 6.134,-0.425 13.452,-1.404 21.824,-2.918 l 6.185,-1.118 -1.622,6.072 c -0.412,1.543 -0.621,3.489 -0.621,5.78 0,2.29 0.209,4.234 0.62,5.777 l 1.391,5.203 -5.383,-0.187 C 38.26,72.055 21.829,71.61 14.59,71.61 c -10.188,0 -22.099,0.256 -35.403,0.761 l -0.39,0.015 -0.467,-0.181 -0.206,0.008 c -0.939,0.035 -1.923,0.075 -2.958,0.118 l -4.533,0.19 0.391,-4.519 c 1.371,-15.838 2.065,-33.155 2.065,-51.47 0,-19.595 -0.825,-45.804 -2.453,-77.897 l -0.226,-4.47 4.465,0.286 c 7.728,0.496 13.432,0.748 16.953,0.748 1.912,0 5.407,-0.126 10.388,-0.373" /></g></g></g></g></svg>